# xmcd
#
# Track frame offsets:
#	182
#	10457
#	23137
#	36882
#	48282
#	59057
#	72545
#	83995
#	99770
#	111335
#	121045
#
# Disc length: 1750 seconds
#
# Revision: 927232877
# Processed by: cddbd v1.5.2PL0 Copyright (c) Steve Scherf et al.
# Submitted via: EZCDAudioConverter 2.1.5.1
#
DISCID=9006d40b
DTITLE=The Statler Brothers - The Best of the Statler Bros. Rides Again, Vol. 
DTITLE=2
DYEAR=1979
DGENRE=Country
TTITLE0=Do You Know You Are My Sunshine
TTITLE1=Here We Are Again
TTITLE2=The Movies
TTITLE3=Your Picture in the Paper
TTITLE4=Some I Wrote
TTITLE5=How Great Thou Art
TTITLE6=(I'll Even Love You) Better Than I Did Then
TTITLE7=How to Be a Country Star
TTITLE8=Silver Medals and Sweet Memories
TTITLE9=Who Am I to Say
TTITLE10=The Official Historian on Shirlyy Jean Berrell
EXTD=
EXTT0=
EXTT1=
EXTT2=
EXTT3=
EXTT4=
EXTT5=
EXTT6=
EXTT7=
EXTT8=
EXTT9=
EXTT10=
PLAYORDER=
